/* XPM */
static char *result[] = {
/* columns rows colors chars-per-pixel */
"50 50 86 1 ",
"  c #2D3037",
". c #2D3037",
"X c #2D3037",
"o c #2D3037",
"O c #2D3037",
"+ c #2D3037",
"@ c #2D3037",
"- c #2D3037",
"$ c #2D3037",
"% c #2D3037",
"& c #2D3037",
"* c #2D3037",
"= c #2D3037",
"# c #2D3037",
"; c #2D3037",
": c #2D3037",
"> c #2D3037",
", c #2D3037",
"< c #2D3037",
"1 c #2D3037",
"2 c #2D3037",
"3 c #2D3037",
"4 c #2D3037",
"5 c #2D3037",
"6 c #2D3037",
"7 c #2D3037",
"8 c #2D3037",
"9 c #2D3037",
"0 c #2D3037",
"q c #2D3037",
"w c #2D3037",
"e c #2D3037",
"r c #2D3037",
"t c #2D3037",
"y c #2D3037",
"u c #2D3037",
"i c #2D3037",
"p c #2D3037",
"a c #2D3037",
"s c #2D3037",
"d c #2D3037",
"f c #2D3037",
"g c #2D3037",
"h c #2D3037",
"j c #2D3037",
"k c #2D3037",
"l c #2D3037",
"z c #2D3037",
"x c #2D3037",
"c c #2D3037",
"v c #2D3037",
"b c #2D3037",
"n c #2D3037",
"m c #2D3037",
"M c #2D3037",
"N c #2D3037",
"B c #2D3037",
"V c #2D3037",
"C c #2D3037",
"Z c #2D3037",
"A c #2D3037",
"S c #2D3037",
"D c #2D3037",
"F c #2D3037",
"G c #2D3037",
"H c #2D3037",
"J c #2D3037",
"K c #2D3037",
"L c #2D3037",
"P c #2D3037",
"I c #2D3037",
"U c #2D3037",
"Y c #2D3037",
"T c #2D3037",
"R c #2D3037",
"E c #2D3037",
"W c #2D3037",
"Q c #2D3037",
"! c #2D3037",
"~ c #2D3037",
"^ c #2D3037",
"/ c #2D3037",
"( c #2D3037",
") c #2D3037",
"_ c #2D3037",
"` c #2D3037",
/* pixels */
"..............  . .<etfq1qffff;o . ...X...........",
".... .......X.X <uqlUYIIffKYIIf*e2yo..............",
"........X.. .X4%KUcfYYUUxeYYIIx2xBfw0X ...........",
"........X.. -u:KEQKz!!!QKf!!!!CeBBBBa16...........",
"........   kf%K!!!IevvcCfqcccvffEEEPfre5..........",
"........ ozf&1YLEUxtvvxcfqcvCCx1efCKBeka0o........",
"........ i11x2vvIKzeCCvccqvvCCx1kKBBzkPzt.........",
"........<*1YcecIPKxfCCCCxfvKCCciLCBBzaCLa4........",
"........9*ICfecIKKcfCCCCcevCCCiiCCBBxavCCa3.......",
".......o%KCxktKKKCcfCCCCcfCCCCcfCBBCxkcvCB0o......",
".......ueUxxkfKKKCcfCccCcfvCCCcfCCCBxkcCCPa%... ..",
".......tPCxxkaKBKKcfcCCCcfCCCCcfBBCBxzcvCCZ$......",
".......aPxxxzfKKCKCfccCCCqKCCCifBBBBxkBBcCB$......",
"...... wcxxxzfKBcfcfcccCCiLCCKCfxaxxxazxzka#......",
".......:w99e92te2EefcCCvvfKKCCvqf^ewwwww2w>#.. ...",
".......;NNBVCDITREIecCCCCeKCCCcf)F~~GFFFFDN#......",
".......>ZZDADFGFRTRRaBBBBtLvvct)FFDAZVZZZmj@......",
" ......&xNAZAFFFTTP1xxxBBaLKKvx*AAZNNjjjjpr#......",
".......%,>,>41,>2D>fBBBcCtLCCCve&Z%%%%%%%%%#......",
"...... %*>*19&99222fBBxBBtPCCCctt%rruruttte#... ..",
".......%gggkg>xcc2ffBxBBctLKKCCqxpvCvgxzzzg$......",
".......$zzzzz9vvKcafBBxBCqIvCCCtCvvvvgzzzzg$......",
"....   %zzzzzrCCcBefxxBcCeIKvCvtCvvvxgzzzzl@......",
"....  X$zzzzjrCxxBefxBxBCeICCCCtCxvvxgkzzzg$......",
".......@zzzzzrCxcxxaxcccCrICCvCtCccccgzzkzg#......",
".......$kzzzzrCxxcxaxxxxCwIccCvgCxcxxagzkzj#......",
".......@kzzzzrCxxxxaxxx*1111cvvkCcxccpkzkgg$......",
".......$kkzkzuCzxzxaxx1^((^(*ccgccccxgggjgd#......",
".......@gzzkgavzzzzaxx*AASAZ*ccgCxcxxtggkkg$......",
".......#gkkzzaczzzzaxx*NZ%NV>zcgBxxxxpggkak#......",
".......@gkkzzaczzzzazx%nN%NN$kztcxxxxraggga$......",
".......@gkkkkaczzzztzz%jjjjj$kxucxxxxrgagga$......",
".......@azzkkaczzwgazzr%$###wzzuxekzzwattrr$ .....",
".......+>21121w19Fetzzzrw&9wzzzgw~p21w,,2,,$... ..",
".......@djNNNDDDFFRrgxzzzwzzzzxw~DTGDFDDFAA%......",
".......@jNVZZDDDFSFGpazzzwzzzz9HDZSVNMMmmnj%......",
".......+pjMMVZDZASFwtzzzzwgzzzk&nZVnnjhjjpp$......",
".......+%>>>::::>n,*gzgzzrgzzzkw$d;$$$$$##$+......",
".......+%***>&19w>44ggkkzwgjlzgwt%9we1ww999$......",
".......+9tttt,rggwawgkkkg9uggggwkazxxqtattp%......",
"....   +wgagg9agggjwazzkz>rzgjgwaxxxxrtaaad$ .....",
"....   +9gggg9agggzwagjgg>rgggg4axzkk2wprww$......",
".... ..O%41211,,>>,>&%%%$#$$%%;;>>,::>::>;;#......",
"....... 7jjnnnNNVVVMZZSFF7mJHHGFFFSFSSSSSDG,......",
"........bJG~W~~~J//))))_`pS`_)_//~~J~~HGHGG,......",
"........pVVMVVMMMMVVMMMMS,sVMmmmMmmnbnbbbss; .....",
"........7bbbhbbbbmbmMMmMZ7sMMMmMmMmnbnbssss;......",
"........,sshbbbnmbMmmMmmS7pMMMMmmmmnnnbbbss;......",
"....... ,sshbbbbbmmMmmmmM8pMMMMmnnbbb8bs888;......",
"....... #;;;;;;;$;=$$$$$$+@@@++@++++++++++++......"
};
